<svg id="Layer_1" data-name="Layer 1" xmlns="http://www.w3.org/2000/svg" viewBox="0 0 127.84 12.73"><defs><style>.cls-1,.cls-2{fill:#fff;}.cls-1{fill-rule:evenodd;}</style></defs><title>logo-white</title><path class="cls-1" d="M246.72,394.45a1.11,1.11,0,0,0,1.32-1.17c0-.93-1.05-1.05-1.75-1.05h-0.93v2.22h1.36Zm-4.63,5.44v-10h4.82c2.87,0,4.26,1.32,4.26,3.37s-1.28,3.51-4.15,3.51h-1.65v3.11h-3.28Z" transform="translate(-242.08 -389.64)"/><path class="cls-1" d="M252,392.62h2.62v1.47h0a2.19,2.19,0,0,1,2.23-1.68,3.51,3.51,0,0,1,.37,0v2.89a4.37,4.37,0,0,0-.6-0.08c-1.18,0-1.78.56-1.78,2.12v2.51H252v-7.27Z" transform="translate(-242.08 -389.64)"/><path class="cls-1" d="M260.6,396.19c0,1.37.51,2,1.25,2s1.25-.6,1.25-2c0-1.07-.47-1.87-1.22-1.83-1,0-1.28,1-1.28,1.83h0Zm1.23-3.77c2.57,0,4.15,1.51,4.15,3.77,0,2.66-1.8,3.91-4.14,3.91s-4.14-1.28-4.14-3.76S259.38,392.41,261.83,392.41Z" transform="translate(-242.08 -389.64)"/><path class="cls-1" d="M272,399.89c-3.79.21-4.25-.06-4.25-2.57v-3h-1v-1.67h1.07v-2.26h2.84v2.26H272v1.67h-1.39v2.64c0,0.67.1,0.9,0.9,0.9H272v2.07Z" transform="translate(-242.08 -389.64)"/><path class="cls-1" d="M278.59,395.44a1.31,1.31,0,0,0-1.28-1.26,1.2,1.2,0,0,0-1.35,1.26h2.62ZM276,396.91a1.4,1.4,0,0,0,1.43,1.43,1.15,1.15,0,0,0,1.08-.64h2.76c-0.5,1.8-2.33,2.4-4,2.4-2.33,0-4.14-1.33-4.14-3.77a3.85,3.85,0,0,1,4.12-3.91,4.09,4.09,0,0,1,4.27,4.5H276Z" transform="translate(-242.08 -389.64)"/><path class="cls-1" d="M287.55,395.4a1.09,1.09,0,0,0-.31-0.75,1,1,0,0,0-.75-0.29c-1.08,0-1.26,1.12-1.26,2,0,1.1.42,1.82,1.26,1.82a1.09,1.09,0,0,0,1.12-1.08h2.91a3.08,3.08,0,0,1-1.36,2.35,4.9,4.9,0,0,1-2.68.68c-2.35,0-4.15-1.32-4.15-3.77s1.75-3.91,4.15-3.91c1.94,0,3.77.83,4,3h-2.93Z" transform="translate(-242.08 -389.64)"/><path class="cls-1" d="M296.63,399.89c-3.79.21-4.25-.06-4.25-2.57v-3h-1v-1.67h1.07v-2.26h2.85v2.26h1.39v1.67h-1.39v2.64c0,0.67.1,0.9,0.9,0.9h0.46v2.07Z" transform="translate(-242.08 -389.64)"/><path class="cls-1" d="M303.27,395.44a1.31,1.31,0,0,0-1.28-1.26,1.2,1.2,0,0,0-1.35,1.26h2.62Zm-2.62,1.47a1.4,1.4,0,0,0,1.43,1.43,1.15,1.15,0,0,0,1.08-.64h2.76c-0.5,1.8-2.33,2.4-4,2.4-2.33,0-4.14-1.33-4.14-3.77a3.85,3.85,0,0,1,4.12-3.91,4.09,4.09,0,0,1,4.27,4.5h-5.51Z" transform="translate(-242.08 -389.64)"/><path class="cls-1" d="M312.38,396.33c0-.8-0.28-1.68-1.24-1.68s-1.22.92-1.22,1.72,0.19,1.65,1.14,1.65a1.42,1.42,0,0,0,1.32-1.69h0Zm0.19,3.57v-1a2.52,2.52,0,0,1-2.23,1.18c-2.19,0-3.3-1.65-3.3-3.71,0-2.41,1.35-4,3.08-4a2.52,2.52,0,0,1,2.17.94V389.9h2.89v10h-2.6Z" transform="translate(-242.08 -389.64)"/><rect class="cls-2" x="74.59" y="7.4" width="2.94" height="2.86"/><path class="cls-1" d="M326.27,396.33c0-.8-0.28-1.68-1.24-1.68s-1.22.92-1.22,1.72S324,398,324.95,398a1.42,1.42,0,0,0,1.32-1.69h0Zm0.19,3.57v-1a2.52,2.52,0,0,1-2.23,1.18c-2.19,0-3.3-1.65-3.3-3.71,0-2.41,1.35-4,3.08-4a2.52,2.52,0,0,1,2.17.94V389.9h2.89v10h-2.6Z" transform="translate(-242.08 -389.64)"/><path class="cls-1" d="M335.66,395.44a1.31,1.31,0,0,0-1.28-1.26,1.2,1.2,0,0,0-1.35,1.26h2.62ZM333,396.91a1.4,1.4,0,0,0,1.43,1.43,1.15,1.15,0,0,0,1.08-.64h2.76c-0.5,1.8-2.33,2.4-4,2.4-2.33,0-4.14-1.33-4.14-3.77a3.85,3.85,0,0,1,4.12-3.91,4.09,4.09,0,0,1,4.27,4.5H333Z" transform="translate(-242.08 -389.64)"/><path class="cls-1" d="M342.19,397.63a0.81,0.81,0,0,0,.31.67,1.16,1.16,0,0,0,.71.22,0.75,0.75,0,0,0,.92-0.65c0-1.17-4.46-.24-4.46-3.05,0-1.86,1.93-2.4,3.44-2.4s3.44,0.36,3.61,2.29h-2.62a0.76,0.76,0,0,0-.28-0.53,0.91,0.91,0,0,0-.58-0.18c-0.5,0-.82.15-0.82,0.51,0,1,4.59.33,4.59,3.05,0,1.51-1.25,2.54-3.91,2.54-1.67,0-3.5-.51-3.65-2.47h2.75Z" transform="translate(-242.08 -389.64)"/><path class="cls-1" d="M348.32,399.89v-7.27h2.89v7.27h-2.89Zm0-10.26h2.89v2.05h-2.89v-2.05Z" transform="translate(-242.08 -389.64)"/><path class="cls-1" d="M355.44,396.13a1.24,1.24,0,0,0,1.14,1.42,1.26,1.26,0,0,0,1.22-1.5,1.31,1.31,0,0,0-1.22-1.57c-0.87,0-1.14.71-1.14,1.65h0Zm0.39,4.14a0.47,0.47,0,0,0,.18.32,0.93,0.93,0,0,0,.62.18c0.83,0,1.17-.37,1.17-1.42v-0.6a2.77,2.77,0,0,1-2.08.79,3.17,3.17,0,0,1-3.16-3.44c0-1.79.86-3.69,3.25-3.69a2.76,2.76,0,0,1,2.21,1.17v-1h2.54v5.86c0,2.18-.25,3.89-3.83,3.89-2.57,0-3.65-1-3.79-2.1h2.9Z" transform="translate(-242.08 -389.64)"/><path class="cls-1" d="M362,392.62h2.64v1.14a2.85,2.85,0,0,1,2.46-1.35c1.92,0,2.82,1.12,2.82,3.12v4.36H367V396c0-.72-0.19-1.36-1-1.36s-1.12.57-1.12,1.5v3.71H362v-7.27Z" transform="translate(-242.08 -389.64)"/></svg>