<svg id="Layer_1" data-name="Layer 1" xmlns="http://www.w3.org/2000/svg" viewBox="0 0 304.83 49.67"><defs><style>.cls-1{fill:#231f20;}.cls-2{fill:#fff;}</style></defs><title>logo</title><rect class="cls-1" width="304.83" height="49.67"/><path class="cls-2" d="M185.19,646.54V624h10.3a8.73,8.73,0,0,1,6,1.81,6.62,6.62,0,0,1,2,5.23,7.24,7.24,0,0,1-2,5.51,8.1,8.1,0,0,1-5.81,1.92H191v8h-5.79ZM191,634h3.82a3.37,3.37,0,0,0,2.3-.67,2.62,2.62,0,0,0,.74-2.05,2.51,2.51,0,0,0-.77-2,3.49,3.49,0,0,0-2.33-.67H191V634Z" transform="translate(-164.38 -610.8)"/><path class="cls-2" d="M206.44,646.54V629.93h5.23v2.9a6,6,0,0,1,2.17-2.5,6.48,6.48,0,0,1,3.3-.82v5.38l-0.7-.07-0.65,0a5,5,0,0,0-2.07.37,3,3,0,0,0-1.31,1.15,4,4,0,0,0-.44,1.49,26.59,26.59,0,0,0-.13,3.14v5.58h-5.41Z" transform="translate(-164.38 -610.8)"/><path class="cls-2" d="M218.69,638.21a8.85,8.85,0,0,1,2.34-6.52,10.08,10.08,0,0,1,12.95,0,10.26,10.26,0,0,1,0,13.05,10.09,10.09,0,0,1-13,0A8.9,8.9,0,0,1,218.69,638.21Zm5.58,0a6.14,6.14,0,0,0,.84,3.5,2.72,2.72,0,0,0,2.38,1.22,2.75,2.75,0,0,0,2.41-1.23,6.11,6.11,0,0,0,.85-3.49,6,6,0,0,0-.85-3.47,2.75,2.75,0,0,0-2.41-1.22,2.72,2.72,0,0,0-2.39,1.21A6.11,6.11,0,0,0,224.27,638.21Z" transform="translate(-164.38 -610.8)"/><path class="cls-2" d="M237.5,633.22v-3.28h2.23v-4.71h5.44v4.71h2.78v3.28h-2.78v7.2a3.79,3.79,0,0,0,.43,2.18,2,2,0,0,0,1.6.53h0.4l0.28,0v3.47q-0.86.17-1.67,0.26a14.09,14.09,0,0,1-1.58.09q-2.83,0-3.87-1.38t-1-5.89v-6.43H237.5Z" transform="translate(-164.38 -610.8)"/><path class="cls-2" d="M260.84,641.31h5.23a7.26,7.26,0,0,1-2.88,4.23,9.08,9.08,0,0,1-5.32,1.5,8.06,8.06,0,0,1-6.11-2.34,8.86,8.86,0,0,1-2.25-6.39,9.15,9.15,0,0,1,2.26-6.53,8,8,0,0,1,6.1-2.41,8.05,8.05,0,0,1,6.22,2.44,9.56,9.56,0,0,1,2.26,6.75q0,0.4,0,.6c0,0.14,0,.26,0,0.36H255.08a4.15,4.15,0,0,0,.76,2.68,2.7,2.7,0,0,0,2.22.92,3.21,3.21,0,0,0,1.79-.46A2.46,2.46,0,0,0,260.84,641.31Zm-5.91-4.84h6.19a3.71,3.71,0,0,0-.85-2.51A2.87,2.87,0,0,0,258,633a2.76,2.76,0,0,0-2.15.89A4.26,4.26,0,0,0,254.93,636.47Z" transform="translate(-164.38 -610.8)"/><path class="cls-2" d="M284.54,640.38a7.36,7.36,0,0,1-2.54,4.93,8.45,8.45,0,0,1-5.57,1.76,7.86,7.86,0,0,1-6-2.38,8.74,8.74,0,0,1-2.26-6.29,9.3,9.3,0,0,1,2.29-6.65,8.16,8.16,0,0,1,6.23-2.43,8.38,8.38,0,0,1,5.51,1.72,6.6,6.6,0,0,1,2.35,4.76h-5.48a3.19,3.19,0,0,0-.84-1.74,2.2,2.2,0,0,0-1.57-.58,2.35,2.35,0,0,0-2.14,1.21,6.9,6.9,0,0,0-.73,3.54,6.63,6.63,0,0,0,.7,3.42,2.32,2.32,0,0,0,2.12,1.12,2.39,2.39,0,0,0,1.7-.6,3.24,3.24,0,0,0,.86-1.8h5.36Z" transform="translate(-164.38 -610.8)"/><path class="cls-2" d="M285.53,633.22v-3.28h2.23v-4.71h5.44v4.71H296v3.28H293.2v7.2a3.79,3.79,0,0,0,.43,2.18,2,2,0,0,0,1.6.53h0.41l0.28,0v3.47q-0.86.17-1.67,0.26a14.1,14.1,0,0,1-1.58.09q-2.83,0-3.87-1.38t-1-5.89v-6.43h-2.23Z" transform="translate(-164.38 -610.8)"/><path class="cls-2" d="M308.87,641.31h5.22a7.26,7.26,0,0,1-2.88,4.23,9.08,9.08,0,0,1-5.32,1.5,8.06,8.06,0,0,1-6.11-2.34,8.86,8.86,0,0,1-2.25-6.39,9.15,9.15,0,0,1,2.26-6.53,8,8,0,0,1,6.1-2.41,8.05,8.05,0,0,1,6.22,2.44,9.56,9.56,0,0,1,2.26,6.75q0,0.4,0,.6c0,0.14,0,.26,0,0.36H303.11a4.15,4.15,0,0,0,.76,2.68,2.7,2.7,0,0,0,2.22.92,3.21,3.21,0,0,0,1.79-.46A2.46,2.46,0,0,0,308.87,641.31ZM303,636.47h6.19a3.71,3.71,0,0,0-.85-2.51,2.87,2.87,0,0,0-2.24-.9,2.76,2.76,0,0,0-2.15.89A4.27,4.27,0,0,0,303,636.47Z" transform="translate(-164.38 -610.8)"/><path class="cls-2" d="M333.65,624v22.5h-5.44v-2.18a6.07,6.07,0,0,1-2.12,2,5.8,5.8,0,0,1-2.8.65,6.19,6.19,0,0,1-5.06-2.41,9.73,9.73,0,0,1-1.94-6.3,10,10,0,0,1,1.95-6.4,6.07,6.07,0,0,1,5-2.48,6.28,6.28,0,0,1,2.91.66,5.45,5.45,0,0,1,2.1,1.94v-8h5.41Zm-11.73,14a5.9,5.9,0,0,0,.83,3.42,2.74,2.74,0,0,0,2.39,1.18,2.68,2.68,0,0,0,2.36-1.17,6.07,6.07,0,0,0,.8-3.43,5.4,5.4,0,0,0-.84-3.24,2.78,2.78,0,0,0-2.38-1.15,2.71,2.71,0,0,0-2.31,1.18A5.35,5.35,0,0,0,321.92,638.06Z" transform="translate(-164.38 -610.8)"/><path class="cls-2" d="M337.32,646.54v-5.38H343v5.38h-5.65Z" transform="translate(-164.38 -610.8)"/><path class="cls-2" d="M363.15,624v22.5h-5.44v-2.18a6.07,6.07,0,0,1-2.12,2,5.8,5.8,0,0,1-2.8.65,6.19,6.19,0,0,1-5.06-2.41,9.73,9.73,0,0,1-1.94-6.3,10,10,0,0,1,1.95-6.4,6.07,6.07,0,0,1,5-2.48,6.28,6.28,0,0,1,2.91.66,5.45,5.45,0,0,1,2.1,1.94v-8h5.41Zm-11.73,14a5.9,5.9,0,0,0,.83,3.42,2.74,2.74,0,0,0,2.39,1.18,2.68,2.68,0,0,0,2.36-1.17,6.07,6.07,0,0,0,.8-3.43,5.4,5.4,0,0,0-.84-3.24,2.78,2.78,0,0,0-2.38-1.15,2.71,2.71,0,0,0-2.31,1.18A5.35,5.35,0,0,0,351.42,638.06Z" transform="translate(-164.38 -610.8)"/><path class="cls-2" d="M377.33,641.31h5.22a7.26,7.26,0,0,1-2.88,4.23,9.08,9.08,0,0,1-5.32,1.5,8.06,8.06,0,0,1-6.11-2.34A8.86,8.86,0,0,1,366,638.3a9.15,9.15,0,0,1,2.26-6.53,8,8,0,0,1,6.1-2.41,8.05,8.05,0,0,1,6.22,2.44,9.56,9.56,0,0,1,2.26,6.75q0,0.4,0,.6c0,0.14,0,.26,0,0.36H371.57a4.15,4.15,0,0,0,.76,2.68,2.7,2.7,0,0,0,2.22.92,3.21,3.21,0,0,0,1.79-.46A2.46,2.46,0,0,0,377.33,641.31Zm-5.91-4.84h6.19a3.71,3.71,0,0,0-.85-2.51,2.87,2.87,0,0,0-2.24-.9,2.76,2.76,0,0,0-2.15.89A4.27,4.27,0,0,0,371.42,636.47Z" transform="translate(-164.38 -610.8)"/><path class="cls-2" d="M384.85,641.47h5.44a2.19,2.19,0,0,0,.82,1.65,3.43,3.43,0,0,0,2.1.55,3.18,3.18,0,0,0,1.8-.44,1.37,1.37,0,0,0,.66-1.19q0-1-2.57-1.62-1.38-.35-2.22-0.63a11.61,11.61,0,0,1-4.26-2.13,3.86,3.86,0,0,1-1.15-2.91,4.69,4.69,0,0,1,1.92-4,8.66,8.66,0,0,1,5.3-1.44,10.48,10.48,0,0,1,5.56,1.23,4.64,4.64,0,0,1,2.2,3.67h-5.22a1.88,1.88,0,0,0-.76-1.25,2.91,2.91,0,0,0-1.65-.4,2.58,2.58,0,0,0-1.5.37,1.23,1.23,0,0,0-.53,1.06q0,1,2.66,1.7l1,0.27q2.48,0.72,3.44,1.08a5.88,5.88,0,0,1,1.39.68,4.17,4.17,0,0,1,1.33,1.53,4.56,4.56,0,0,1,.43,2,4.94,4.94,0,0,1-2.11,4.23,9.87,9.87,0,0,1-5.88,1.53,10.18,10.18,0,0,1-5.84-1.47A5.28,5.28,0,0,1,384.85,641.47Z" transform="translate(-164.38 -610.8)"/><path class="cls-2" d="M404,628.42V624h5.41v4.38H404Zm0,18.12V629.93h5.41v16.61H404Z" transform="translate(-164.38 -610.8)"/><path class="cls-2" d="M413.25,647.94h5.44a1.79,1.79,0,0,0,.83,1.11,3.33,3.33,0,0,0,1.67.36,3.24,3.24,0,0,0,2.47-.79,4.25,4.25,0,0,0,.72-2.83V644a5.74,5.74,0,0,1-2.16,2,6.41,6.41,0,0,1-3,.66,6.17,6.17,0,0,1-5-2.36,9.37,9.37,0,0,1-1.94-6.15,9.71,9.71,0,0,1,1.94-6.29,6.19,6.19,0,0,1,5.06-2.41,6.56,6.56,0,0,1,3,.64,6.36,6.36,0,0,1,2.26,2v-2.21h5.1v13.7a28.14,28.14,0,0,1-.23,4.36,5.86,5.86,0,0,1-.76,2.1,6.08,6.08,0,0,1-2.85,2.34,11.45,11.45,0,0,1-4.48.79,10.57,10.57,0,0,1-5.75-1.29A5.35,5.35,0,0,1,413.25,647.94Zm4.69-9.79a5.16,5.16,0,0,0,.84,3.13,2.7,2.7,0,0,0,2.29,1.14,2.84,2.84,0,0,0,2.4-1.12,5.08,5.08,0,0,0,.86-3.14,5.72,5.72,0,0,0-.8-3.32,2.71,2.71,0,0,0-2.36-1.13,2.78,2.78,0,0,0-2.39,1.15A5.56,5.56,0,0,0,417.94,638.15Z" transform="translate(-164.38 -610.8)"/><path class="cls-2" d="M433.46,646.54V629.93h5.32v2.28a5.63,5.63,0,0,1,2.09-2,6.14,6.14,0,0,1,2.95-.67A5.42,5.42,0,0,1,448,631q1.31,1.46,1.31,4.76v10.8h-5.44v-8.36a8.75,8.75,0,0,0-.49-3.74,1.94,1.94,0,0,0-1.8-.8,2.36,2.36,0,0,0-2.09,1,5.5,5.5,0,0,0-.66,3v8.89h-5.41Z" transform="translate(-164.38 -610.8)"/></svg>