<svg id="Layer_1" data-name="Layer 1" xmlns="http://www.w3.org/2000/svg" viewBox="0 0 304.83 49.67"><defs><style>.cls-1{fill:#231f20;}.cls-2{fill:#fff;}</style></defs><title>logo</title><rect class="cls-1" width="304.83" height="49.67"/><path class="cls-2" d="M666.52,324.75V303.81h10.09c6,0,8.93,2.76,8.93,7.07,0,4.51-2.67,7.36-8.7,7.36h-3.46v6.51h-6.86Zm9.71-11.4c1.6,0,2.76-.64,2.76-2.44s-2.21-2.21-3.67-2.21h-1.95v4.65h2.85Z" transform="translate(-647.94 -290.2)"/><path class="cls-2" d="M687.38,309.51h5.5v3.08h0.06c0.84-2.38,2.33-3.52,4.68-3.52a7.27,7.27,0,0,1,.79.09v6a9.18,9.18,0,0,0-1.25-.17c-2.47,0-3.72,1.16-3.72,4.45v5.26h-6V309.51Z" transform="translate(-647.94 -290.2)"/><path class="cls-2" d="M707.91,309.07c5.38,0,8.7,3.17,8.7,7.91,0,5.58-3.78,8.2-8.67,8.2s-8.67-2.68-8.67-7.88S702.77,309.07,707.91,309.07ZM705.33,317c0,2.88,1.08,4.13,2.62,4.13s2.62-1.25,2.62-4.13c0-2.24-1-3.93-2.56-3.84C705.94,313.14,705.33,315.26,705.33,317Z" transform="translate(-647.94 -290.2)"/><path class="cls-2" d="M729.12,324.75c-7.94.44-8.9-.12-8.9-5.38V313h-2.15v-3.49h2.24v-4.74h6v4.74h2.91V313h-2.91v5.53c0,1.4.2,1.89,1.89,1.89h1v4.33Z" transform="translate(-647.94 -290.2)"/><path class="cls-2" d="M737.52,318.49a2.94,2.94,0,0,0,3,3,2.41,2.41,0,0,0,2.27-1.34h5.79c-1,3.78-4.89,5-8.43,5-4.89,0-8.67-2.79-8.67-7.91s3.75-8.2,8.64-8.2c5.64,0,9,3.9,9,9.42H737.52Zm5.5-3.08a2.74,2.74,0,0,0-2.67-2.65,2.51,2.51,0,0,0-2.82,2.65H743Z" transform="translate(-647.94 -290.2)"/><path class="cls-2" d="M761.81,315.32a2.29,2.29,0,0,0-.64-1.57,2,2,0,0,0-1.57-.61c-2.27,0-2.65,2.36-2.65,4.16,0,2.3.87,3.81,2.65,3.81a2.29,2.29,0,0,0,2.36-2.27h6.11a6.46,6.46,0,0,1-2.85,4.92,10.27,10.27,0,0,1-5.61,1.42c-4.92,0-8.7-2.76-8.7-7.91s3.66-8.2,8.7-8.2c4.07,0,7.91,1.75,8.35,6.25h-6.14Z" transform="translate(-647.94 -290.2)"/><path class="cls-2" d="M780.84,324.75c-7.94.44-8.9-.12-8.9-5.38V313h-2.15v-3.49H772v-4.74h6v4.74h2.91V313H778v5.53c0,1.4.2,1.89,1.89,1.89h1v4.33Z" transform="translate(-647.94 -290.2)"/><path class="cls-2" d="M789.24,318.49a2.94,2.94,0,0,0,3,3,2.41,2.41,0,0,0,2.27-1.34h5.79c-1,3.78-4.89,5-8.43,5-4.89,0-8.67-2.79-8.67-7.91s3.75-8.2,8.64-8.2c5.64,0,9,3.9,9,9.42H789.24Zm5.5-3.08a2.74,2.74,0,0,0-2.68-2.65,2.51,2.51,0,0,0-2.82,2.65h5.5Z" transform="translate(-647.94 -290.2)"/><path class="cls-2" d="M814.26,324.75v-2a5.28,5.28,0,0,1-4.68,2.47c-4.6,0-6.92-3.46-6.92-7.77,0-5.06,2.82-8.35,6.46-8.35a5.28,5.28,0,0,1,4.54,2v-7.24h6v20.94h-5.44Zm-0.41-7.47c0-1.69-.58-3.52-2.59-3.52s-2.56,1.92-2.56,3.61,0.41,3.46,2.38,3.46S813.85,319,813.85,317.27Z" transform="translate(-647.94 -290.2)"/><path class="cls-2" d="M822.84,324.75v-6H829v6h-6.17Z" transform="translate(-647.94 -290.2)"/><path class="cls-2" d="M843.34,324.75v-2a5.28,5.28,0,0,1-4.68,2.47c-4.6,0-6.92-3.46-6.92-7.77,0-5.06,2.82-8.35,6.46-8.35a5.28,5.28,0,0,1,4.54,2v-7.24h6v20.94h-5.44Zm-0.41-7.47c0-1.69-.58-3.52-2.59-3.52s-2.56,1.92-2.56,3.61,0.41,3.46,2.38,3.46S842.94,319,842.94,317.27Z" transform="translate(-647.94 -290.2)"/><path class="cls-2" d="M857.13,318.49a2.94,2.94,0,0,0,3,3,2.41,2.41,0,0,0,2.27-1.34h5.79c-1,3.78-4.89,5-8.43,5-4.89,0-8.67-2.79-8.67-7.91s3.75-8.2,8.64-8.2c5.64,0,9,3.9,9,9.42H857.13Zm5.5-3.08a2.74,2.74,0,0,0-2.68-2.65,2.51,2.51,0,0,0-2.82,2.65h5.5Z" transform="translate(-647.94 -290.2)"/><path class="cls-2" d="M876.3,320a1.69,1.69,0,0,0,.64,1.4,2.43,2.43,0,0,0,1.48.47c0.93,0,1.92-.29,1.92-1.37,0-2.44-9.34-.49-9.34-6.4,0-3.9,4-5,7.21-5s7.21,0.76,7.56,4.8h-5.5a1.59,1.59,0,0,0-.58-1.11,1.91,1.91,0,0,0-1.22-.38c-1,0-1.72.32-1.72,1.08,0,2.12,9.63.7,9.63,6.4,0,3.17-2.62,5.32-8.2,5.32-3.49,0-7.33-1.08-7.65-5.18h5.76Z" transform="translate(-647.94 -290.2)"/><path class="cls-2" d="M889.16,303.25h6v4.3h-6v-4.3Zm0,21.49V309.51h6v15.24h-6Z" transform="translate(-647.94 -290.2)"/><path class="cls-2" d="M904.89,325.53a1,1,0,0,0,.38.67,2,2,0,0,0,1.31.38c1.75,0,2.44-.79,2.44-3v-1.25a5.8,5.8,0,0,1-4.36,1.66c-4.22,0-6.63-3.32-6.63-7.21s1.8-7.74,6.8-7.74a5.79,5.79,0,0,1,4.63,2.44v-2h5.32v12.27c0,4.57-.52,8.14-8,8.14-5.38,0-7.65-2.15-7.94-4.39h6.08Zm-0.81-8.67c0,1.51.76,2.94,2.38,3,1.86,0.09,2.56-1.51,2.56-3.14s-0.64-3.29-2.56-3.29S904.08,314.89,904.08,316.86Z" transform="translate(-647.94 -290.2)"/><path class="cls-2" d="M917.84,309.51h5.53v2.38a6,6,0,0,1,5.15-2.82c4,0,5.9,2.36,5.9,6.54v9.13h-6v-8.06c0-1.51-.41-2.85-2.12-2.85s-2.36,1.19-2.36,3.14v7.77h-6V309.51Z" transform="translate(-647.94 -290.2)"/></svg>